<svg width="21" height="21" viewBox="0 0 21 21" fill="none" xmlns="http://www.w3.org/2000/svg">
<g opacity="0.5">
<path d="M20.5634 6.517C20.5166 5.45412 20.3447 4.7234 20.0985 4.09021C19.8445 3.41811 19.4537 2.81637 18.9417 2.31615C18.4415 1.80814 17.8358 1.41339 17.1715 1.16335C16.5346 0.917132 15.8077 0.745251 14.7448 0.698389C13.674 0.647557 13.3341 0.635803 10.6182 0.635803C7.90225 0.635803 7.5623 0.647557 6.49545 0.69442C5.43257 0.741283 4.70185 0.913316 4.06882 1.15938C3.39656 1.41339 2.79482 1.80417 2.2946 2.31615C1.78659 2.81637 1.392 3.42208 1.14181 4.0864C0.895587 4.7234 0.723706 5.45015 0.676843 6.51303C0.626012 7.58386 0.614258 7.9238 0.614258 10.6397C0.614258 13.3556 0.626012 13.6956 0.672874 14.7624C0.719737 15.8253 0.891771 16.556 1.13799 17.1892C1.392 17.8613 1.78659 18.463 2.2946 18.9633C2.79482 19.4713 3.40053 19.866 4.06485 20.1161C4.70185 20.3623 5.4286 20.5342 6.49164 20.581C7.55834 20.628 7.89843 20.6396 10.6143 20.6396C13.3302 20.6396 13.6702 20.628 14.737 20.581C15.7999 20.5342 16.5306 20.3623 17.1637 20.1161C18.508 19.5963 19.5709 18.5334 20.0907 17.1892C20.3367 16.5522 20.5088 15.8253 20.5556 14.7624C20.6025 13.6956 20.6143 13.3556 20.6143 10.6397C20.6143 7.9238 20.6103 7.58386 20.5634 6.517ZM18.762 14.6843C18.719 15.6612 18.5549 16.1887 18.4181 16.5404C18.082 17.4119 17.3903 18.1036 16.5189 18.4397C16.1672 18.5765 15.6358 18.7406 14.6627 18.7834C13.6076 18.8305 13.2912 18.8421 10.6221 18.8421C7.95308 18.8421 7.63268 18.8305 6.58139 18.7834C5.60445 18.7406 5.0769 18.5765 4.7252 18.4397C4.29153 18.2794 3.89679 18.0254 3.57638 17.6932C3.24422 17.3689 2.99021 16.9781 2.82993 16.5444C2.69316 16.1927 2.52907 15.6612 2.48617 14.6882C2.43916 13.6331 2.42755 13.3165 2.42755 10.6475C2.42755 7.97845 2.43916 7.65804 2.48617 6.60691C2.52907 5.62997 2.69316 5.10242 2.82993 4.75072C2.99021 4.3169 3.24422 3.9223 3.58035 3.60174C3.90457 3.26958 4.29535 3.01558 4.72917 2.85545C5.08087 2.71868 5.61239 2.55458 6.58536 2.51153C7.64046 2.46467 7.95705 2.45292 10.6259 2.45292C13.2989 2.45292 13.6154 2.46467 14.6667 2.51153C15.6436 2.55458 16.1712 2.71868 16.5229 2.85545C16.9565 3.01558 17.3513 3.26958 17.6717 3.60174C18.0038 3.92612 18.2578 4.3169 18.4181 4.75072C18.5549 5.10242 18.719 5.63379 18.762 6.60691C18.8089 7.66201 18.8207 7.97845 18.8207 10.6475C18.8207 13.3165 18.8089 13.6292 18.762 14.6843Z" fill="#111111"/>
<path d="M10.6172 5.50098C7.78028 5.50098 5.47852 7.80259 5.47852 10.6397C5.47852 13.4768 7.78028 15.7784 10.6172 15.7784C13.4543 15.7784 15.756 13.4768 15.756 10.6397C15.756 7.80259 13.4543 5.50098 10.6172 5.50098ZM10.6172 13.9731C8.77677 13.9731 7.28388 12.4803 7.28388 10.6397C7.28388 8.79907 8.77677 7.30634 10.6172 7.30634C12.4579 7.30634 13.9506 8.79907 13.9506 10.6397C13.9506 12.4803 12.4579 13.9731 10.6172 13.9731Z" fill="#111111"/>
<path d="M17.1592 5.2978C17.1592 5.96029 16.6221 6.49746 15.9594 6.49746C15.2969 6.49746 14.7598 5.96029 14.7598 5.2978C14.7598 4.63516 15.2969 4.09814 15.9594 4.09814C16.6221 4.09814 17.1592 4.63516 17.1592 5.2978Z" fill="#111111"/>
</g>
</svg>
