<svg width="21" height="17" viewBox="0 0 21 17" fill="none" xmlns="http://www.w3.org/2000/svg">
<path opacity="0.5" d="M20.6143 2.42524C19.8643 2.75024 19.0893 2.97524 18.2643 3.07524C19.1143 2.57524 19.7643 1.77524 20.0643 0.800244C19.2643 1.27524 18.3893 1.60024 17.4643 1.80024C16.7143 1.00024 15.6393 0.500244 14.4643 0.500244C12.1893 0.500244 10.3643 2.35024 10.3643 4.60024C10.3643 4.92524 10.3893 5.22524 10.4643 5.52524C7.06426 5.37524 4.06426 3.72524 2.03926 1.25024C0.589258 3.85024 2.21426 6.00025 3.28926 6.72525C2.63926 6.72525 1.98926 6.52525 1.43926 6.22524C1.43926 8.25025 2.86426 9.92525 4.71426 10.3002C4.31426 10.4252 3.41426 10.5002 2.86426 10.3752C3.38926 12.0002 4.91426 13.2002 6.68926 13.2252C5.28926 14.3252 3.23926 15.2002 0.614258 14.9252C2.43926 16.1002 4.58926 16.7752 6.91426 16.7752C14.4643 16.7752 18.5643 10.5252 18.5643 5.12524C18.5643 4.95024 18.5643 4.77525 18.5393 4.60024C19.3893 3.97524 20.0893 3.25024 20.6143 2.42524Z" fill="#111111"/>
</svg>
